<svg width="44" height="44" viewBox="0 0 44 44" fill="none" xmlns="http://www.w3.org/2000/svg">
<path d="M38.2067 8.45172C37.2703 7.51489 36.1585 6.77174 34.9348 6.2647C33.7111 5.75767 32.3996 5.4967 31.075 5.4967C29.7504 5.4967 28.4389 5.75767 27.2152 6.2647C25.9915 6.77174 24.8797 7.51489 23.9433 8.45172L22 10.3951L20.0567 8.45172C18.1652 6.56028 15.5999 5.49768 12.925 5.49768C10.2501 5.49768 7.68476 6.56028 5.79333 8.45172C3.90189 10.3432 2.83929 12.9085 2.83929 15.5834C2.83929 18.2583 3.90189 20.8236 5.79333 22.7151L7.73666 24.6584L22 38.9217L36.2633 24.6584L38.2067 22.7151C39.1435 21.7787 39.8866 20.6669 40.3937 19.4432C40.9007 18.2195 41.1617 16.9079 41.1617 15.5834C41.1617 14.2588 40.9007 12.9472 40.3937 11.7236C39.8866 10.4999 39.1435 9.3881 38.2067 8.45172Z" stroke="black" stroke-width="2" stroke-linecap="round" stroke-linejoin="round"/>
</svg>
