<svg width="44" height="44" viewBox="0 0 44 44" fill="none" xmlns="http://www.w3.org/2000/svg">
<path d="M16.5 33V9.16667L38.5 5.5V29.3333" stroke="black" stroke-width="2" stroke-linecap="round" stroke-linejoin="round"/>
<path d="M11 38.5C14.0376 38.5 16.5 36.0376 16.5 33C16.5 29.9624 14.0376 27.5 11 27.5C7.96243 27.5 5.5 29.9624 5.5 33C5.5 36.0376 7.96243 38.5 11 38.5Z" stroke="black" stroke-width="2" stroke-linecap="round" stroke-linejoin="round"/>
<path d="M33 34.8334C36.0376 34.8334 38.5 32.3709 38.5 29.3334C38.5 26.2958 36.0376 23.8334 33 23.8334C29.9624 23.8334 27.5 26.2958 27.5 29.3334C27.5 32.3709 29.9624 34.8334 33 34.8334Z" stroke="black" stroke-width="2" stroke-linecap="round" stroke-linejoin="round"/>
</svg>
