<svg width="44" height="44" viewBox="0 0 44 44" fill="none" xmlns="http://www.w3.org/2000/svg">
<path d="M22 25.6667C24.025 25.6667 25.6666 24.0251 25.6666 22C25.6666 19.975 24.025 18.3334 22 18.3334C19.9749 18.3334 18.3333 19.975 18.3333 22C18.3333 24.0251 19.9749 25.6667 22 25.6667Z" stroke="black" stroke-width="2" stroke-linecap="round" stroke-linejoin="round"/>
<path d="M29.7733 14.2267C30.7961 15.2483 31.6074 16.4614 32.161 17.7968C32.7146 19.1322 32.9995 20.5636 32.9995 22.0092C32.9995 23.4547 32.7146 24.8861 32.161 26.2215C31.6074 27.5569 30.7961 28.7701 29.7733 29.7917M14.2267 29.7733C13.2039 28.7517 12.3926 27.5386 11.839 26.2032C11.2855 24.8678 11.0005 23.4364 11.0005 21.9908C11.0005 20.5453 11.2855 19.1139 11.839 17.7785C12.3926 16.4431 13.2039 15.2299 14.2267 14.2083M34.9617 9.03833C38.3986 12.4763 40.3294 17.1387 40.3294 22C40.3294 26.8613 38.3986 31.5237 34.9617 34.9617M9.03834 34.9617C5.60137 31.5237 3.67059 26.8613 3.67059 22C3.67059 17.1387 5.60137 12.4763 9.03834 9.03833" stroke="black" stroke-width="2" stroke-linecap="round" stroke-linejoin="round"/>
</svg>
